<?xml version="1.0" encoding="UTF-8"?>
<!DOCTYPE svg PUBLIC "-//W3C//DTD SVG 1.1//EN" "http://www.w3.org/Graphics/SVG/1.1/DTD/svg11.dtd">
<!-- Creator: CorelDRAW 2021 (64-Bit) -->
<svg xmlns="http://www.w3.org/2000/svg" xml:space="preserve" width="100" height="100"  version="1.1" style="shape-rendering:geometricPrecision; text-rendering:geometricPrecision; image-rendering:optimizeQuality; fill-rule:evenodd; clip-rule:evenodd"
viewBox="0 0 20000 20000"
 xmlns:xlink="http://www.w3.org/1999/xlink"
 xmlns:xodm="http://www.corel.com/coreldraw/odm/2003">
 <defs>
  <style type="text/css">
   <![CDATA[
    .str0 {stroke:black;stroke-width:20;stroke-linecap:round;stroke-linejoin:round;stroke-miterlimit:22.9256}
    .fil0 {fill:black}
    .fil1 {fill:white;fill-rule:nonzero}
   ]]>
  </style>
 </defs>
 <g id="Layer_x0020_1">
  <metadata id="CorelCorpID_0Corel-Layer"/>
  <g id="_2179512541840">
   <rect class="fil0 str0" x="-20" y="-7.3" width="20000" height="20000" rx="2158.44" ry="2158.44"/>
   <path class="fil1" d="M9409.98 2443.42l-6103.83 3524.07 0 7047.56 2340.13 -1351.56 0 -2761.65c1.07,-47.45 26.56,-91.01 67.64,-114.15 20.46,-11.97 43.75,-18.31 67.46,-18.31 23.06,0 45.77,6.01 65.82,17.38l2843.21 1640.75c82.76,48.02 133.74,136.54 133.74,232.23 0,0.07 0,0.23 0,0.3l0 3281.5c-0.55,47.52 -25.84,91.38 -66.69,115.67 -20.47,12.01 -43.82,18.36 -67.57,18.36 -22.79,0 -45.21,-5.85 -65.1,-16.95l-2392.67 -1383.18 -2340.96 1352.73 6102.16 3524.32 6102.89 -3524.19 -2339.2 -1352.74 -2391.59 1381.41c-20.03,11.03 -42.6,16.83 -65.49,16.83 -23.56,0 -46.71,-6.12 -67.18,-17.76 -41.04,-23.96 -66.52,-67.72 -67.05,-115.23l-0.01 -3280.89c0,-96.8 50.05,-184.15 133.74,-232.31l2841.69 -1641.1c19.95,-11.38 42.55,-17.4 65.53,-17.4 23.6,0 46.83,6.35 67.15,18.35 41.54,23.14 67.51,66.7 67.87,114.15l0 2761.66 2340.73 1352.02 0 -7047.8 -1.07 0 -6101.46 -3524.07 0 2703.1 2391.48 1380.6c40.96,24.08 65.51,68.11 65.51,116.15 0,47.57 -25.02,91.25 -65.51,115.21l-2842.75 1642.16c-40.82,23.11 -87.03,35.32 -133.97,35.32 -46.93,0 -93.15,-12.21 -133.98,-35.33l-2841.92 -1642.16c-40.89,-23.67 -66.1,-67.36 -66.1,-114.62 0,-0.18 0,-0.41 0,-0.59 0,-0.38 0,-0.79 0,-1.18 0,-47.34 25.18,-91.16 66.09,-114.97l2391.14 -1380.59 0.12 -2703.1zm-2457.35 4199.84z"/>
  </g>
 </g>
</svg>
